<?xml version="1.0"?>
<svg viewBox="0 0 1200 1000" xmlns="http://www.w3.org/2000/svg">
 <g class="layer">
  <title>Layer 1</title>
  <g id="svg_1">
   <path d="m340.09334,518.24666l-32.20994,155.14" fill="none" id="edge_1_2" stroke="#c7b7c7" stroke-miterlimit="10" stroke-width="4"/>
   <path d="m317.18337,683.29667l174.9499,-92.91" fill="none" id="edge_1_3" stroke="#c7b7c7" stroke-miterlimit="10" stroke-width="4"/>
   <path d="m491.23321,579.19667l-139.61007,-63.01" fill="none" id="edge_2_3" stroke="#c7b7c7" stroke-miterlimit="10" stroke-width="4"/>
   <path d="m1059.20161,770.19667l-547.46567,-181.56" fill="none" id="edge_3_4" stroke="#c7b7c7" stroke-miterlimit="10" stroke-width="4"/>
   <path d="m856.50342,614.36667l-346.87998,-26.79001" fill="none" id="edge_3_5" stroke="#c7b7c7" stroke-miterlimit="10" stroke-width="4"/>
   <path d="m1062.16333,773.16683l-199.46007,-155" fill="none" id="edge_4_5" stroke="#c7b7c7" stroke-miterlimit="10" stroke-width="4"/>
   <path d="m454.54332,447.35667l-104.15997,55.91" fill="none" id="edge_2_6" stroke="#c7b7c7" stroke-miterlimit="10" stroke-width="4"/>
   <path d="m379.33311,799.69666l676.34021,-30.47999" fill="none" id="edge_4_8" stroke="#c7b7c7" stroke-miterlimit="10" stroke-width="4"/>
   <path d="m826.92335,835.64667l-446.40996,-30.96007" fill="none" id="edge_7_8" stroke="#c7b7c7" stroke-miterlimit="10" stroke-width="4"/>
   <path d="m198.36333,566.52667l113.19,121.68" fill="none" id="edge_1_10" stroke="#c7b7c7" stroke-miterlimit="10" stroke-width="4"/>
   <path d="m335.19339,511.89667l-140.91985,46.64" fill="none" id="edge_2_10" stroke="#c7b7c7" stroke-miterlimit="10" stroke-width="4"/>
   <path d="m296.73333,441.71666l40.38998,60.16001" fill="none" id="edge_2_11" stroke="#c7b7c7" stroke-miterlimit="10" stroke-width="4"/>
   <path d="m341.85334,514.53666l146.27001,248.58998" fill="none" id="edge_2_12" stroke="#c7b7c7" stroke-miterlimit="10" stroke-width="4"/>
   <path d="m380.69333,797.14667l108.00001,-30.48999" fill="none" id="edge_8_12" stroke="#c7b7c7" stroke-miterlimit="10" stroke-width="4"/>
   <path d="m374.57318,886.67672l451.12999,-50.21004" fill="none" id="edge_7_13" stroke="#c7b7c7" stroke-miterlimit="10" stroke-width="4"/>
   <path d="m378.83332,885.65667l114.56002,-120.7" fill="none" id="edge_12_13" stroke="#c7b7c7" stroke-miterlimit="10" stroke-width="4"/>
   <path d="m801.80339,453.38666l26.36998,372.16003" fill="none" id="edge_7_15" stroke="#c7b7c7" stroke-miterlimit="10" stroke-width="4"/>
   <path d="m1048.09667,494.06003l-245.95002,-52.25666" fill="none" id="edge_9_15" stroke="#c7b7c7" stroke-miterlimit="10" stroke-width="4"/>
   <path d="m401.1729,690.0567l394.85025,-249.60003" fill="none" id="edge_14_15" stroke="#c7b7c7" stroke-miterlimit="10" stroke-width="4"/>
   <path d="m634.02327,39.33667l-228.24999,640.32999" fill="none" id="edge_14_16" stroke="#c7b7c7" stroke-miterlimit="10" stroke-width="4"/>
   <path d="m937.25338,429.09586l-433.13003,154.78006" fill="none" id="edge_3_17" stroke="#c7b7c7" stroke-miterlimit="10" stroke-width="4"/>
   <path d="m941.29334,422.71334l-141.94334,16.92333" fill="none" id="edge_15_17" stroke="#c7b7c7" stroke-miterlimit="10" stroke-width="4"/>
   <path d="m497.15333,766.46665l58.66001,132.19997" fill="none" id="edge_12_18" stroke="#c7b7c7" stroke-miterlimit="10" stroke-width="4"/>
   <path d="m516.3634,578.50666l253.12002,-51.94999" fill="none" id="edge_3_19" stroke="#c7b7c7" stroke-miterlimit="10" stroke-width="4"/>
   <path d="m768.2134,523.43666l60.57994,310.98996" fill="none" id="edge_7_19" stroke="#c7b7c7" stroke-miterlimit="10" stroke-width="4"/>
   <path d="m257.50662,475.99998l25.44332,-70.24666" fill="none" id="edge_15_19" stroke="#c7b7c7" stroke-miterlimit="10" stroke-width="4" transform="translate(510.667 48)"/>
   <path d="m298.98334,426.89668l51.18998,-56.42001" fill="none" id="edge_11_20" stroke="#c7b7c7" stroke-miterlimit="10" stroke-width="4"/>
   <path d="m614.90324,245.58667l-104.51982,328.43" fill="none" id="edge_3_23" stroke="#c7b7c7" stroke-miterlimit="10" stroke-width="4"/>
   <path d="m197.68338,555.30663l422.51999,-311.94997" fill="none" id="edge_10_23" stroke="#c7b7c7" stroke-miterlimit="10" stroke-width="4"/>
   <path d="m617.4665,242.58l170.29677,191.81" fill="none" id="edge_15_23" stroke="#c7b7c7" stroke-miterlimit="10" stroke-width="4"/>
   <path d="m636.673336,38.856655l-17.850003,206.090024" fill="none" id="edge_16_23" stroke="#c7b7c7" stroke-miterlimit="10" stroke-width="4"/>
   <path d="m617.56349,242.09665l-261.88987,120.13001" fill="none" id="edge_20_23" stroke="#c7b7c7" stroke-miterlimit="10" stroke-width="4"/>
   <path d="m398.81329,256.90667l-38.05986,98.12" fill="none" id="edge_20_24" stroke="#c7b7c7" stroke-miterlimit="10" stroke-width="4"/>
   <path d="m1044.2133,499.05667l115.01,18.03" fill="none" id="edge_9_25" stroke="#c7b7c7" stroke-miterlimit="10" stroke-width="4"/>
   <path d="m1163.7533,521.90669l-70.19994,83.28995" fill="none" id="edge_21_25" stroke="#c7b7c7" stroke-miterlimit="10" stroke-width="4"/>
   <path d="m504.20332,763.5467l132.1,-61.83002" fill="none" id="edge_12_26" stroke="#c7b7c7" stroke-miterlimit="10" stroke-width="4"/>
   <path d="m629.94337,940.97663l18.70995,-234.90999" fill="none" id="edge_22_26" stroke="#c7b7c7" stroke-miterlimit="10" stroke-width="4"/>
   <path d="m862.90333,607.94668l93.13,-350.13002" fill="none" id="edge_5_27" stroke="#c7b7c7" stroke-miterlimit="10" stroke-width="4"/>
   <path d="m954.6932,259.19671l-549.98997,427.22995" fill="none" id="edge_14_27" stroke="#c7b7c7" stroke-miterlimit="10" stroke-width="4"/>

   <g id="ver_1">
    <path d="m318.98723,681.84168a15,15 0 1 1 0,-0.02l0,0.02z" fill="#68aeba" id="circle_1" stroke="#c7b7c7" stroke-miterlimit="10" stroke-width="2"/>
    <text fill="#f0d543" font-family="sans-serif" font-size="16px" font-style="normal" font-weight="bold" id="svg_18" text-anchor="start" x="299.537227" y="685.841682">1</text>
    <text fill="#000000" font-family="Courier" font-size="24" id="svg_19" stroke="#000000" stroke-width="0" text-anchor="middle" x="238.687227" xml:space="preserve" y="690.501682">Брест</text>
   </g>
   <g id="ver_2">
    <path d="m355.76333,508.65667a15,15 0 1 1 0,-0.01l0,0.01z" fill="#68aeba" id="circle_2" stroke="#c7b7c7" stroke-miterlimit="10" stroke-width="2"/>
    <text fill="#f0d543" font-family="sans-serif" font-size="16px" font-style="normal" font-weight="bold" id="svg_52" text-anchor="start" x="336.313332" y="511.656667">2</text>
    <text fill="#000000" font-family="Courier" font-size="24" id="svg_180" stroke="#000000" stroke-width="0" text-anchor="middle" x="409.913332" xml:space="preserve" y="517.626667">Вильнюс</text>
   </g>
   <g id="ver_3">
    <path d="m520.23035,580.71413a15,15 0 1 1 0,-0.01l0,0.01z" fill="#68aeba" id="circle_3" stroke="#c7b7c7" stroke-miterlimit="10" stroke-width="2"/>
    <text fill="#f0d543" font-family="sans-serif" font-size="16px" font-style="normal" font-weight="bold" id="svg_10" text-anchor="start" x="500.780346" y="580.714134">3</text>
    <text fill="#000000" font-family="Courier" font-size="24" id="svg_11" stroke="#000000" stroke-width="0" text-anchor="middle" x="525.040346" xml:space="preserve" y="552.624134">Витебск</text>
   </g>
   <g id="ver_4">
    <path d="m1076.36626,767.75a15,15 0 1 1 0,-0.02l0,0.02z" fill="#68aeba" id="circle_4" stroke="#c7b7c7" stroke-miterlimit="10" stroke-width="2"/>
    <text fill="#f0d543" font-family="sans-serif" font-size="16px" font-style="normal" font-weight="bold" id="svg_70" text-anchor="start" x="1056.916261" y="767.749998">4</text>
    <text fill="#000000" font-family="Courier" font-size="24" id="svg_71" stroke="#000000" stroke-width="0" text-anchor="middle" x="1130.446261" xml:space="preserve" y="739.259998">Волгоград</text>
   </g>
   <g id="ver_5">
    <path d="m873.32485,613.305a15,15 0 1 1 0,-0.01999l0,0.01999z" fill="#68aeba" id="circle_5" stroke="#c7b7c7" stroke-miterlimit="10" stroke-width="2"/>
    <text fill="#f0d543" font-family="sans-serif" font-size="16px" font-style="normal" font-weight="bold" id="svg_65" text-anchor="start" x="853.884846" y="617.305005">5</text>
    <text fill="#000000" font-family="Courier" font-size="24" id="svg_66" stroke="#000000" stroke-width="0" text-anchor="middle" x="935.214846" xml:space="preserve" y="619.705005">Воронеж</text>
   </g>
   <g id="ver_6">
    <path d="m483.16333,439.95667a15,15 0 1 1 0,-0.02l0,0.02z" fill="#68aeba" id="circle_6" stroke="#c7b7c7" stroke-miterlimit="10" stroke-width="2"/>
    <text fill="#f0d543" font-family="sans-serif" font-size="16px" font-style="normal" font-weight="bold" id="svg_72" text-anchor="start" x="463.713332" y="442.956667">6</text>
    <text fill="#000000" font-family="Courier" font-size="24" id="svg_184" stroke="#000000" stroke-width="0" text-anchor="middle" x="466.913332" xml:space="preserve" y="418.626667">Даугавпилс</text>
   </g>
   <g id="ver_7">
    <path d="m844.28439,835.45498a15,15 0 1 1 0,-0.02l0,0.02z" fill="#68aeba" id="circle_7" stroke="#c7b7c7" stroke-miterlimit="10" stroke-width="2"/>
    <text fill="#f0d543" font-family="sans-serif" font-size="16px" font-style="normal" font-weight="bold" id="svg_85" text-anchor="start" x="824.834389" y="839.454981">7</text>
    <text fill="#000000" font-family="Courier" font-size="24" id="svg_86" stroke="#000000" stroke-width="0" text-anchor="middle" x="838.934389" xml:space="preserve" y="871.554981">Донецк</text>
   </g>
   <g id="ver_8">
    <path d="m390.84093,802.095a15,15 0 1 1 0,-0.02l0,0.02z" fill="#68aeba" id="circle_8" stroke="#c7b7c7" stroke-miterlimit="10" stroke-width="2"/>
    <text fill="#f0d543" font-family="sans-serif" font-size="16px" font-style="normal" font-weight="bold" id="svg_89" text-anchor="start" x="371.390935" y="804.094997">8</text>
    <text fill="#000000" font-family="Courier" font-size="24" id="svg_90" stroke="#000000" stroke-width="0" text-anchor="middle" x="303.580935" xml:space="preserve" y="806.914997">Житомир</text>
   </g>
   <g id="ver_9">
    <path d="m1062.74587,497.57919a15,15 0 1 1 0,-0.01l0,0.01z" fill="#68aeba" id="circle_9" stroke="#c7b7c7" stroke-miterlimit="10" stroke-width="2"/>
    <text fill="#f0d543" font-family="sans-serif" font-size="16px" font-style="normal" font-weight="bold" id="svg_55" text-anchor="start" x="1043.29587" y="503.579186">9</text>
    <text fill="#000000" font-family="Courier" font-size="24" id="svg_56" stroke="#000000" stroke-width="0" text-anchor="middle" x="1051.79587" xml:space="preserve" y="471.425857">Казань</text>
   </g>
   <g id="ver_10">
    <path d="m207.8377,559.74666a15,15 0 1 1 0,-0.02l0,0.02z" fill="#68aeba" id="circle_10" stroke="#c7b7c7" stroke-miterlimit="10" stroke-width="2"/>
    <text fill="#f0d543" font-family="sans-serif" font-size="16px" font-style="normal" font-weight="bold" id="svg_14" text-anchor="start" x="182.937701" y="563.74666">10</text>
    <text fill="#000000" font-family="Courier" font-size="24" id="svg_15" stroke="#000000" stroke-width="0" text-anchor="middle" x="125.047701" xml:space="preserve" y="532.59666">Калининград</text>
   </g>
   <g id="ver_11">
    <path d="m304.10333,431.93667a15,15 0 1 1 0,-0.02l0,0.02z" fill="#68aeba" id="circle_11" stroke="#c7b7c7" stroke-miterlimit="10" stroke-width="2"/>
    <text fill="#f0d543" font-family="sans-serif" font-size="16px" font-style="normal" font-weight="bold" id="svg_97" text-anchor="start" x="280.643332" y="436.936667">11</text>
    <text fill="#000000" font-family="Courier" font-size="24" id="svg_189" stroke="#000000" stroke-width="0" text-anchor="middle" x="224.913332" xml:space="preserve" y="442.626667">Каунас</text>
   </g>
   <g id="ver_12">
    <path d="m508.88569,762.86168a15,15 0 1 1 0,-0.02l0,0.02z" fill="#68aeba" id="circle_12" stroke="#c7b7c7" stroke-miterlimit="10" stroke-width="2"/>
    <text fill="#f0d543" font-family="sans-serif" font-size="16px" font-style="normal" font-weight="bold" id="svg_6" text-anchor="start" x="484.995695" y="766.861678">12</text>
    <text fill="#000000" font-family="Courier" font-size="24" id="svg_7" stroke="#000000" stroke-width="0" text-anchor="middle" x="510.585695" xml:space="preserve" y="740.481678">Киев</text>
   </g>
   <g id="ver_13">
    <path d="m391.26095,887.49997a15,15 0 1 1 0,-0.02l0,0.02z" fill="#68aeba" id="circle_13" stroke="#c7b7c7" stroke-miterlimit="10" stroke-width="2"/>
    <text fill="#f0d543" font-family="sans-serif" font-size="16px" font-style="normal" font-weight="bold" id="svg_93" text-anchor="start" x="365.360952" y="891.499968">13</text>
    <text fill="#000000" font-family="Courier" font-size="24" id="svg_94" stroke="#000000" stroke-width="0" text-anchor="middle" x="305.160952" xml:space="preserve" y="893.509968">Кишинев</text>
   </g>
   <g id="ver_14">
    <path d="m412.29019,692.73249a15,15 0 1 1 0,-0.01l0,0.01z" fill="#68aeba" id="circle_14" stroke="#c7b7c7" stroke-miterlimit="10" stroke-width="2"/>
    <text fill="#f0d543" font-family="sans-serif" font-size="16px" font-style="normal" font-weight="bold" id="svg_50" text-anchor="start" x="388.400186" y="698.732489">14</text>
    <text fill="#000000" font-family="Courier" font-size="24" id="svg_51" stroke="#000000" stroke-width="0" text-anchor="middle" x="381.720186" xml:space="preserve" y="729.605818">Минск</text>
   </g>
   <g id="ver_15">
    <path d="m811.33882,441.56666a15,15 0 1 1 0,-0.02l0,0.02z" fill="#68aeba" id="circle_15" stroke="#c7b7c7" stroke-miterlimit="10" stroke-width="2"/>
    <text fill="#f0d543" font-family="sans-serif" font-size="16px" font-style="normal" font-weight="bold" id="svg_34" text-anchor="start" x="787.43882" y="447.566661">15</text>
    <text fill="#000000" font-family="Courier" font-size="24" id="svg_35" stroke="#000000" stroke-width="0" text-anchor="middle" x="835.53882" xml:space="preserve" y="415.776661">Москва</text>
   </g>
   <g id="ver_16">
    <path d="m652.31333,35.91667a15,15 0 1 1 0,-0.01l0,0.01z" fill="#68aeba" id="circle_16" stroke="#c7b7c7" stroke-miterlimit="10" stroke-width="2"/>
    <text fill="#f0d543" font-family="sans-serif" font-size="16px" font-style="normal" font-weight="bold" id="svg_122" text-anchor="start" x="628.413332" y="41.916667">16</text>
    <text fill="#000000" font-family="Courier" font-size="24" id="svg_194" stroke="#000000" stroke-width="0" text-anchor="middle" x="552.913332" xml:space="preserve" y="46.626667">Мурманск</text>
   </g>
   <g id="ver_17">
    <path d="m960.35446,422.81746a15,15 0 1 1 0,-0.01l0,0.01z" fill="#68aeba" id="circle_17" stroke="#c7b7c7" stroke-miterlimit="10" stroke-width="2"/>
    <text fill="#f0d543" font-family="sans-serif" font-size="16px" font-style="normal" font-weight="bold" id="svg_38" text-anchor="start" x="936.454457" y="426.817456">17</text>
    <text fill="#000000" font-family="Courier" font-size="24" id="svg_39" stroke="#000000" stroke-width="0" text-anchor="middle" x="1008.327786" xml:space="preserve" y="397.520784">Н.Новгород</text>
   </g>
   <g id="ver_18">
    <path d="m570.75333,902.12667a15,15 0 1 1 0,-0.01l0,0.01z" fill="#68aeba" id="circle_18" stroke="#c7b7c7" stroke-miterlimit="10" stroke-width="2"/>
    <text fill="#f0d543" font-family="sans-serif" font-size="16px" font-style="normal" font-weight="bold" id="svg_132" text-anchor="start" x="546.853332" y="908.126667">18</text>
    <text fill="#000000" font-family="Courier" font-size="24" id="svg_196" stroke="#000000" stroke-width="0" text-anchor="middle" x="489.913332" xml:space="preserve" y="910.626667">Одесса</text>
   </g>
   <g id="ver_19">
    <path d="m783.15197,528.53166a15,15 0 1 1 0,-0.02l0,0.02z" fill="#68aeba" id="circle_19" stroke="#c7b7c7" stroke-miterlimit="10" stroke-width="2"/>
    <text fill="#f0d543" font-family="sans-serif" font-size="16px" font-style="normal" font-weight="bold" id="svg_46" text-anchor="start" x="759.25197" y="532.531655">19</text>
    <text fill="#000000" font-family="Courier" font-size="24" id="svg_47" stroke="#000000" stroke-width="0" text-anchor="middle" x="737.655306" xml:space="preserve" y="555.811655">Орёл</text>
   </g>
   <g id="ver_20">
    <path d="m371.30565,362.57416a15,15 0 1 1 0,-0.01l0,0.01z" fill="#68aeba" id="circle_20" stroke="#c7b7c7" stroke-miterlimit="10" stroke-width="2"/>
    <text fill="#f0d543" font-family="sans-serif" font-size="16px" font-style="normal" font-weight="bold" id="svg_22" text-anchor="start" x="347.405651" y="365.574164">20</text>
    <text fill="#000000" font-family="Courier" font-size="24" id="svg_23" stroke="#000000" stroke-width="0" text-anchor="middle" x="303.165651" xml:space="preserve" y="370.764164">Рига</text>
   </g>
   <g id="ver_21">
    <path d="m1115.73333,597.40667a15,15 0 1 1 0,-0.02l0,0.02z" fill="#68aeba" id="circle_21" stroke="#c7b7c7" stroke-miterlimit="10" stroke-width="2"/>
    <text fill="#f0d543" font-family="sans-serif" font-size="16px" font-style="normal" font-weight="bold" id="svg_147" text-anchor="start" x="1091.843332" y="599.406667">21</text>
    <text fill="#000000" font-family="Courier" font-size="24" id="svg_206" stroke="#000000" stroke-width="0" text-anchor="middle" x="1101.913332" xml:space="preserve" y="651.626667">Самара</text>
   </g>
   <g id="ver_22">
    <path d="m646.31333,942.77667a15,15 0 1 1 0,-0.01l0,0.01z" fill="#68aeba" id="circle_22" stroke="#c7b7c7" stroke-miterlimit="10" stroke-width="2"/>
    <text fill="#f0d543" font-family="sans-serif" font-size="16px" font-style="normal" font-weight="bold" id="svg_152" text-anchor="start" x="622.413332" y="946.776667">22</text>
    <text fill="#000000" font-family="Courier" font-size="24" id="svg_207" stroke="#000000" stroke-width="0" text-anchor="middle" x="528.913332" xml:space="preserve" y="954.626667">Симферополь</text>
   </g>
   <g id="ver_23">
    <path d="m632.98008,241.80166a15,15 0 1 1 0,-0.02l0,0.02z" fill="#68aeba" id="circle_23" stroke="#c7b7c7" stroke-miterlimit="10" stroke-width="2"/>
    <text fill="#f0d543" font-family="sans-serif" font-size="16px" font-style="normal" font-weight="bold" id="svg_26" text-anchor="start" x="610.080085" y="245.80166">23</text>
    <text fill="#000000" font-family="Courier" font-size="24" id="svg_27" stroke="#000000" stroke-width="0" text-anchor="middle" x="520.710085" xml:space="preserve" y="217.54166">Санкт-Петербург</text>
   </g>
   <g id="ver_24">
    <path d="m418.51333,247.49667a15,15 0 1 1 0,-0.02l0,0.02z" fill="#68aeba" id="circle_24" stroke="#c7b7c7" stroke-miterlimit="10" stroke-width="2"/>
    <text fill="#f0d543" font-family="sans-serif" font-size="16px" font-style="normal" font-weight="bold" id="svg_162" text-anchor="start" x="394.613332" y="250.496667">24</text>
    <text fill="#000000" font-family="Courier" font-size="24" id="svg_213" stroke="#000000" stroke-width="0" text-anchor="middle" x="332.913332" xml:space="preserve" y="254.626667">Таллин</text>
   </g>
   <g id="ver_25">
    <path d="m1179.63467,518.03999a15,15 0 1 1 0,-0.02l0,0.02z" fill="#68aeba" id="circle_25" stroke="#c7b7c7" stroke-miterlimit="10" stroke-width="2"/>
    <text fill="#f0d543" font-family="sans-serif" font-size="16px" font-style="normal" font-weight="bold" id="svg_60" text-anchor="start" x="1155.734672" y="522.03999">25</text>
    <text fill="#000000" font-family="Courier" font-size="24" id="svg_61" stroke="#000000" stroke-width="0" text-anchor="middle" x="1161.974672" xml:space="preserve" y="488.96999">Уфа</text>
   </g>
   <g id="ver_26">
    <path d="m658.89594,693.82499a15,15 0 1 1 0,-0.02l0,0.02z" fill="#68aeba" id="circle_26" stroke="#c7b7c7" stroke-miterlimit="10" stroke-width="2"/>
    <text fill="#f0d543" font-family="sans-serif" font-size="16px" font-style="normal" font-weight="bold" id="svg_80" text-anchor="start" x="634.995942" y="697.824986">26</text>
    <text fill="#000000" font-family="Courier" font-size="24" id="svg_81" stroke="#000000" stroke-width="0" text-anchor="middle" x="625.525942" xml:space="preserve" y="671.184986">Харьков</text>
   </g>
   <g id="ver_27">
    <path d="m972,256.9575a15,15 0 1 1 0,-0.01l0,0.01z" fill="#68aeba" id="circle_27" stroke="#c7b7c7" stroke-miterlimit="10" stroke-width="2"/>
    <text fill="#f0d543" font-family="sans-serif" font-size="16px" font-style="normal" font-weight="bold" id="svg_75" text-anchor="start" x="948.100002" y="260.957504">27</text>
    <text fill="#000000" font-family="Courier" font-size="24" id="svg_76" stroke="#000000" stroke-width="0" text-anchor="middle" x="955.000002" xml:space="preserve" y="232.047504">Ярославль</text>
   </g>

  </g>
 </g>
</svg>